<svg height="64" viewBox="0 0 64 64" width="64" xmlns="http://www.w3.org/2000/svg"><g fill="none" fill-rule="evenodd"><path d="m38 23h6v-6h13v6.5 38.5h-50v-38.5-6.5h13v6h6v-6h12z" fill="#979797"/><path d="m12 16v-13m40 13v-13" stroke="#6b6b6b" stroke-linecap="square" stroke-width="2"/><path d="m26 7-13 4v-8z" fill="#e43535"/><path d="m51 7-13 4v-8z" fill="#e43535" transform="matrix(-1 0 0 1 89 0)"/><path d="m19 25h4v10h-22v-10h4v3h5v-3h4v3h5zm-15 10h16v27h-16zm55-10h4v10h-22v-10h4v3h5v-3h4v3h5zm-15 10h16v27h-16z" fill="#d8d8d8"/><path d="m26 43.0040234c0-3.3159305 2.6930342-6.0040234 6-6.0040234 3.3137085 0 6 2.6873039 6 6.0040234v18.9959766h-12z" fill="#595959"/></g></svg>